<svg xmlns="http://www.w3.org/2000/svg" viewBox="0 0 64 64" id="music-player"><path fill="#ff6d77" d="M32.53,22.18a6.005,6.005,0,1,1-6.01,6A6.013,6.013,0,0,1,32.53,22.18Zm2.53,8.01V26.03a.98.98,0,1,0-1.96,0v4.16a.98.98,0,1,0,1.96,0Zm-3.1,0V26.03a.98.98,0,1,0-1.96,0v4.16a.98.98,0,0,0,1.96,0Z"></path><path fill="#fff" d="M58.84 13.25V42.92H4.96V13.25zM40.5 28.18a7.97 7.97 0 1 0-7.97 7.97A7.976 7.976 0 0 0 40.5 28.18zM33.93 48.22a.291.291 0 0 1 .28.3.276.276 0 0 1-.28.29.293.293 0 0 1-.3-.29A.3.3 0 0 1 33.93 48.22z"></path><path fill="#eef0ef" d="M58.84,44.88v7.7H4.96v-7.7Zm-.44,3.64a.982.982,0,0,0-.98-.98H35.94a2.241,2.241,0,0,0-4.04,0H28.51a.98.98,0,0,0,0,1.96H31.9a2.241,2.241,0,0,0,4.04,0H57.42A.982.982,0,0,0,58.4,48.52Zm-33.76.2a1.013,1.013,0,0,0-.29-.72l-1.18-1.2a.983.983,0,0,0-1.4,1.38l.48.48-.44.4a.969.969,0,0,0-.06,1.38.98.98,0,0,0,.72.32.965.965,0,0,0,.66-.26l1.19-1.09A1.016,1.016,0,0,0,24.64,48.72Zm-6.45,1.05v-2.5a.98.98,0,0,0-1.96,0v2.5a.98.98,0,1,0,1.96,0Zm-2.8,0v-2.5a.975.975,0,1,0-1.95,0v2.5a.975.975,0,1,0,1.95,0Zm-5.52.67a.969.969,0,0,0-.06-1.38l-.44-.4.48-.48a.983.983,0,0,0-1.4-1.38L7.27,48a.967.967,0,0,0,.03,1.41L8.49,50.5a.965.965,0,0,0,.66.26A.98.98,0,0,0,9.87,50.44Z"></path><path fill="#464651" d="M60.79,43.63a.66.66,0,0,1,0,.55v9.38a.975.975,0,0,1-.98.98H3.98A.982.982,0,0,1,3,53.56V12.27a.982.982,0,0,1,.98-.98H59.81a.975.975,0,0,1,.98.98Zm-1.95,8.95v-7.7H4.96v7.7Zm0-9.66V13.25H4.96V42.92Z"></path><path fill="#464651" d="M57.42 47.54a.98.98 0 1 1 0 1.96H35.94a2.241 2.241 0 0 1-4.04 0H28.51a.98.98 0 0 1 0-1.96H31.9a2.241 2.241 0 0 1 4.04 0zm-23.21.98a.291.291 0 0 0-.28-.3.3.3 0 0 0-.3.3.293.293 0 0 0 .3.29A.276.276 0 0 0 34.21 48.52zM32.53 20.22a7.965 7.965 0 1 1-7.97 7.96A7.976 7.976 0 0 1 32.53 20.22zm6.01 7.96a6.01 6.01 0 1 0-6.01 6.01A6.013 6.013 0 0 0 38.54 28.18z"></path><path fill="#464651" d="M35.06 26.03v4.16a.98.98 0 1 1-1.96 0V26.03a.98.98 0 1 1 1.96 0zM31.96 26.03v4.16a.98.98 0 0 1-1.96 0V26.03a.98.98 0 1 1 1.96 0zM24.35 48a.967.967 0 0 1-.03 1.41L23.13 50.5a.965.965 0 0 1-.66.26.98.98 0 0 1-.72-.32.969.969 0 0 1 .06-1.38l.44-.4-.48-.48a.983.983 0 0 1 1.4-1.38zM18.19 47.27v2.5a.98.98 0 1 1-1.96 0v-2.5a.98.98 0 0 1 1.96 0zM15.39 47.27v2.5a.975.975 0 1 1-1.95 0v-2.5a.975.975 0 1 1 1.95 0zM9.81 49.06a.969.969 0 0 1 .06 1.38.98.98 0 0 1-.72.32.965.965 0 0 1-.66-.26L7.3 49.41A.967.967 0 0 1 7.27 48l1.18-1.2a.983.983 0 0 1 1.4 1.38l-.48.48z"></path></svg>